/* XPM */
static char *a3ec5de45b544859879e9afd4723b9bbzNprvbjLddPrX8Oj[] = {
/* columns rows colors chars-per-pixel */
"32 32 233 2 ",
"   c #130400",
".  c #1A0C0C",
"X  c #1B0902",
"o  c #1C130C",
"O  c #1F1104",
"+  c #1C1115",
"@  c #240700",
"#  c #220C03",
"$  c #2A0C02",
"%  c #220C09",
"&  c #2A0F08",
"*  c #2D1105",
"=  c #23120B",
"-  c #2B150D",
";  c #2C1B0D",
":  c #281609",
">  c #331A0E",
",  c #391A0A",
"<  c #33170A",
"1  c #2E1713",
"2  c #2D1C14",
"3  c #251916",
"4  c #321712",
"5  c #341C14",
"6  c #3B1E13",
"7  c #391E1C",
"8  c #371E1A",
"9  c #2D221A",
"0  c #372112",
"q  c #392215",
"w  c #3D241B",
"e  c #3D291B",
"r  c #36251A",
"t  c #3A2B24",
"y  c #3D2120",
"u  c #2D2522",
"i  c #491905",
"p  c #4D200B",
"a  c #44251C",
"s  c #452C1C",
"d  c #4B2816",
"f  c #522B1C",
"g  c #562C17",
"h  c #512E18",
"j  c #632E1A",
"k  c #60361E",
"l  c #792E19",
"z  c #452C22",
"x  c #462825",
"c  c #4C3425",
"v  c #49352A",
"b  c #5F372F",
"n  c #5B3B2C",
"m  c #573625",
"M  c #593A32",
"N  c #612D20",
"B  c #643523",
"V  c #633B2C",
"C  c #683829",
"Z  c #743D2B",
"A  c #783924",
"S  c #693A30",
"D  c #613C33",
"F  c #5E4036",
"G  c #58453C",
"H  c #69432B",
"J  c #7B462B",
"K  c #644432",
"L  c #6E4432",
"P  c #6D443C",
"I  c #6A4A39",
"U  c #744635",
"Y  c #7C4434",
"T  c #7C4C36",
"R  c #724A3A",
"E  c #7C4C3B",
"W  c #734739",
"Q  c #75533B",
"!  c #7E503C",
"~  c #7E5535",
"^  c #6D4B42",
"/  c #634842",
"(  c #734D41",
")  c #7C4C40",
"_  c #6C5245",
"`  c #7E5242",
"'  c #7C564C",
"]  c #755849",
"[  c #6F5850",
"{  c #795A53",
"}  c #7C615B",
"|  c #7E7168",
" . c #8E3B1C",
".. c #8E3817",
"X. c #953A1C",
"o. c #863A25",
"O. c #8C4224",
"+. c #84422B",
"@. c #8A442C",
"#. c #884A2D",
"$. c #9B4325",
"%. c #92442C",
"&. c #9C472B",
"*. c #9C4A2C",
"=. c #95482A",
"-. c #95512E",
";. c #834432",
":. c #8B4430",
">. c #854B34",
",. c #8C4B34",
"<. c #834C3B",
"1. c #8B4E39",
"2. c #934B34",
"3. c #9A4C34",
"4. c #944E39",
"5. c #9B4F3A",
"6. c #964732",
"7. c #85523D",
"8. c #8B523D",
"9. c #8C5436",
"0. c #935132",
"q. c #9B5436",
"w. c #94533C",
"e. c #9C533C",
"r. c #9C5A3C",
"t. c #995C35",
"y. c #A64C2C",
"u. c #A24E36",
"i. c #AC5234",
"p. c #A2543C",
"a. c #AA573C",
"s. c #A35B3C",
"d. c #AA5A3E",
"f. c #A25436",
"g. c #B65C3B",
"h. c #B9633F",
"j. c #9B4F41",
"k. c #845442",
"l. c #8C5543",
"z. c #8D5C4C",
"x. c #885A47",
"c. c #955541",
"v. c #9C5641",
"b. c #955A44",
"n. c #9B5B43",
"m. c #945D4A",
"M. c #9B5D4B",
"N. c #855D54",
"B. c #A25542",
"V. c #A35C43",
"C. c #AA5C44",
"Z. c #A45D4A",
"A. c #AC5E49",
"S. c #AC5542",
"D. c #B95E41",
"F. c #8D614A",
"G. c #9C6642",
"H. c #9B624C",
"J. c #93614B",
"K. c #8C6354",
"L. c #886757",
"P. c #946453",
"I. c #9B6450",
"U. c #9C6A59",
"Y. c #966957",
"T. c #A46444",
"R. c #AA6245",
"E. c #A5634B",
"W. c #AE644C",
"Q. c #AA694E",
"!. c #B46244",
"~. c #BD6B46",
"^. c #B2634C",
"/. c #B86748",
"(. c #B6724F",
"). c #A56553",
"_. c #AC6452",
"`. c #A56A55",
"'. c #AB6C55",
"]. c #AB6B5A",
"[. c #A36C58",
"{. c #B26552",
"}. c #B46C53",
"|. c #B96C54",
" X c #B46E5A",
".X c #BB6F5A",
"XX c #A8745E",
"oX c #B1735C",
"OX c #BB735B",
"+X c #BA795C",
"@X c #B67556",
"#X c #9B796A",
"$X c #8C7E7B",
"%X c #A27A6B",
"&X c #AA7769",
"*X c #BC7663",
"=X c #BD7B62",
"-X c #B77962",
";X c #AF7A74",
":X c #C16645",
">X c #C06F5C",
",X c #C6765B",
"<X c #D17955",
"1X c #C47F65",
"2X c #CB7A64",
"3X c #C97C67",
"4X c #998376",
"5X c #B6826E",
"6X c #AC8779",
"7X c #B78679",
"8X c #CB826A",
"9X c #C88168",
"0X c #D5856B",
"qX c #C88A77",
"wX c #D48B73",
"eX c #D88B7A",
"rX c #D79478",
"tX c #A28780",
"yX c #B79686",
"uX c #B69C93",
"iX c #BB8982",
"pX c #BFA79B",
"aX c #C29087",
"sX c #CB9D90",
"dX c #C5A08E",
"fX c #CCA79C",
"gX c #C0A19C",
"hX c #D2AB9A",
"jX c #CCAEA3",
"kX c #D6B7AC",
"lX c #D1B1A7",
"zX c #E2B8AA",
"xX c #F7C2B0",
/* pixels */
"g.<X<Xh.g.~.~.~.!.s.-.q.rX@X,.H.7XM - 6 C 4.B.2XOX9.G.T.s.-.G.+X",
"g.:Xh.y.$.h.h.$. . .f.(.^.e.o.1.%Xm * $ C ).C.{.V.n.oXr.T.s.R.Q.",
"X.y.y.y...X... .=.%.f.B.V.v.4.M.P.M , @ S ;.o.3. X X XV.>X,XOX1X",
"y.:Xg.i.$.*.=.p.!.s.6.e.o.4.#.1.' s > < k.>.{.OX_.v.W.8X2X2XaXeX",
"i.:Xg.y.$.&.&.a.A.C.3.B.4.Z.w.M.R e ; : I >.H.%.,. X,XwX<X>X{..X",
"i.X. .y.u.*.p.{.C.2.2.@.B.e.2.8.V q 9 ; K F.G.,.v.OX+XR.i.S. X1X",
"y.&.a.d.d.6.3.V.'.r.4.v.#.r.n.J.( 0 3 ; s Q F.9.,._.'.s.(.d.Q.+X",
"o.O.@.O.n.r.c.E.).c.>.J 1.8.9.P.^ y = = I L.XXG.>.,.t.-.t.t.G.G.",
"A J Z j Z H >.x.m.! 7.P.7.~ B R I 8 9 O v Q P.m.7.9.9.>.J 9.J ~ ",
"m k k d L V V n f h m K ' R m K M q 9 o ; c R ` ) W U L H Q I H ",
"0 e 0 0 > 5 - q 6 q 6 a s z q z t 1 2 r ; 0 , , a a a s e v c r ",
"; 9 9 9 - - 4 5 , - $ X   X = 0 w z G G F e * $ @ & & : : o o o ",
"u 3 . = % - 4 $ $ & x M { } [ / _ ] | ] #X#XL.{ _ v 9 X o o 3 o ",
"9 3 3 2 5 v F P { K.6XgXkXlXjXjX6X7X7X#XsXhXjXhXlXpXuX| t 9 3 o ",
"$XG = X D { Y.K.z.E m.sXzXfX6X%X7X5XU.x.m.U.P.U.U.#XuXpXuX4X} / ",
"tX[ t 5 ^ ( W E <.Z l.qXxX5XE U H.).H.H.l.j.o.o.Z k.K.L.#XL.^ { ",
"7XN.a 2 _ P Z A o.A @.-X`.w.'.8Xr.+.w.Z.4.4.o.c.M.;.Y Y E W C k.",
"qXE 5 r z ( z.l.o.l #.Q.E.v.|.3XA.6.@.,.@.,.B.{.n.o.c.T.).).Y ) ",
"&XP 2 t O n ) o.o.,.w.Q.rXQ.,.w.^.R.q.w.B.5.%.p.v.+.V.T.E.'.m.<.",
"aX' :   9 c N A o.:.#.Q.#.Q.3X XA.3.B.^.p.%. .3.s.s.R.V.V.T.oXH.",
";X^ 8 t % c Y M.Z.j.v.3X|.W.}.^.p.}.OXV.5.e.=.3.d.q.(.}.2.#.'.>.",
";XS y % - 6 Z _.B._._. Xp.^.u.3.p.s.T.}.V.C.A.p.=.C.}.p.p.V.n.b.",
"iXP x 1 M b l.Z.B.p.A.S.^./.S.%.p.Z.4.w.v.p.p.6.q.(.W.e.w.W.M.8.",
"iXP y % x b k.4.j.{.|.{.S.S.a.6.p.V.n.0.0.v.5.C.C.e.2.|.e._.].M.",
"iXD 4 % w P x.e.w.Z.^.V.}.d.S.e.q.q.q.-.q.C.p.C.}.3.%..XZ._._.M.",
"iX^ 5 1 7 ' U.M.,.n.n.e.p.C.W.B.O.2.t.q.,X|.u.u.,XA.3..X{.j.).].",
";Xn 5 5 4 R U.H.c.n.E.}.R..X.XR.f.s.(.@X+X8X,X!.R.q.u.,X3X{. X].",
"#Xb 5 X 6 ' I.b.9.,.1.w.8XwX+XR.s.s.R.@X(.wX0X|.!.2.s.eX3X*X].[.",
"Y.D 7 4 a ( m.<.;.J #.,.*X8X].:.w.r.r.oXE. XA.C.Q.+X9XwX].-X).7.",
"L.' 1 7 x V ) l.7.7.l.l.I.].M.m.oXI.8.7.<.c.w.n.'.`.G.XXH.m.F.Y.",
"L._ 1 2 8 K K.Q L 7.P.l.5XU.z.P.&XY.L C k.z.l.H.I.F.T 8.7.L I Q ",
"s e t t w c g d g m C g i j B V S f h R S C N j k p g k p h d c "
};
