/* XPM */
static char *bd92a3a280474405ef339b772586cb67BKbIaUnKdB1FPqcM[] = {
/* columns rows colors chars-per-pixel */
"30 30 51 1 ",
"  c #484848",
". c gray22",
"X c #2C2C2C",
"o c #9C4C00",
"O c #CC6000",
"+ c #B45400",
"@ c #E46C00",
"# c #A85400",
"$ c #FC7800",
"% c #543C1C",
"& c #FC8820",
"* c #6C4824",
"= c #744C28",
"- c #80502C",
"; c #885830",
": c #483818",
"> c #5C4020",
", c #A0643C",
"< c #DC8854",
"1 c #B47044",
"2 c #9C6038",
"3 c #382C14",
"4 c #FCA470",
"5 c #FCB890",
"6 c #C87C4C",
"7 c #FCB080",
"8 c #FCC4A4",
"9 c #E88C58",
"0 c #FC9C60",
"q c #403018",
"w c #FCD8C4",
"e c #FCE8DC",
"r c #A86840",
"t c gray33",
"y c #28200C",
"u c gray44",
"i c #00007C",
"p c black",
"a c #D0D0D0",
"s c #0000A8",
"d c #0000FC",
"f c gray99",
"g c #A80000",
"h c #BC7848",
"j c #F0945C",
"k c #905C34",
"l c #FCD4BC",
"z c #D08050",
"x c #FCBC9C",
"c c #202020",
"v c white",
/* pixels */
"                              ",
"       .............          ",
"      XoO+OO@O@@@@@@Oo.       ",
"     Xo#+O+OOOOOO@$@@Oo.      ",
"     %#########++O@$&$O*      ",
"    Xo##o%=**#==--O$&@@;.     ",
"    Xo#o%=::==#>%=o@$#=O.     ",
"    Xoo=,<<<12=>3%=@#,=o.     ",
"    X%2245544<<6,22O7<2=.     ",
"    X%2<88888879<,0#781%X     ",
"    X%2704788887960788<%X     ",
"    Xq1<78wew888<678e7<%X     ",
"    Xq17.X r<5570<  tw<qX     ",
"   X4y<tuippprrrppXiut7y4X    ",
"   X<y<<asdfghjrgasdf<<y0X    ",
"   X1k<5444457l4844445<k1X    ",
"   X<04lleel54w888leel45<X    ",
"   X0h48ll88z7l8j88ll84<4X    ",
"    r-h7888jr;;;248887h-r     ",
"    X-4<455400z457884<0-X     ",
"    .-7055j7554587j8804-.     ",
"     X7458h2hzzzh2h8847X      ",
"     X778470588w80748x5c      ",
"     X<788874j9j4788875c      ",
"     X2<x8lel8888le8748c      ",
"     Xk2<48887<78884j08.      ",
"     Xk*2h<<<6r6<<<h288.      ",
"     .k>*:::::>*==kk688.      ",
"     .k>-==-22222r68864       ",
"      =>=-22<1666r7x886       "
};
