/* XPM */
static char *ab45d60604fc4d35f39cedc602ac0a6faDTngUh0M61rosZa[] = {
/* columns rows colors chars-per-pixel */
"64 64 244 2 ",
"   c None",
".  c #010101",
"X  c #0A0401",
"o  c #04080C",
"O  c #1A0A03",
"+  c #1B1105",
"@  c #04091B",
"#  c #061216",
"$  c #1C1716",
"%  c #2F0700",
"&  c #2C0D02",
"*  c #230B01",
"=  c #350A00",
"-  c #2B1406",
";  c #3B1403",
":  c #2A1C14",
">  c #2C241E",
",  c #382518",
"<  c #3E2309",
"1  c #171827",
"2  c #0A1128",
"3  c #2F292D",
"4  c #3B2A25",
"5  c #31362F",
"6  c #471703",
"7  c #551D07",
"8  c #410B00",
"9  c #641E05",
"0  c #721D00",
"q  c #4B2409",
"w  c #5A2106",
"e  c #55240A",
"r  c #53260A",
"t  c #5B320E",
"y  c #442719",
"u  c #5B2C18",
"i  c #563417",
"p  c #4E381C",
"a  c #632306",
"s  c #6D2B0B",
"d  c #672809",
"f  c #7C2A05",
"g  c #742B09",
"h  c #772908",
"j  c #69350D",
"k  c #79350D",
"l  c #6B3A16",
"z  c #773B16",
"x  c #622E13",
"c  c #493526",
"v  c #523929",
"b  c #412620",
"n  c #643E24",
"m  c #72451C",
"M  c #6D451C",
"N  c #464635",
"B  c #6E4223",
"V  c #7A4A28",
"C  c #664A38",
"Z  c #7D5335",
"A  c #764737",
"S  c #4E5547",
"D  c #585847",
"F  c #54504B",
"G  c #775A47",
"H  c #6F554E",
"J  c #566253",
"K  c #6A6559",
"L  c #776C50",
"P  c #777869",
"I  c #832C05",
"U  c #8B2D04",
"Y  c #822E0A",
"T  c #892B05",
"R  c #902D02",
"E  c #8E3206",
"W  c #84320A",
"Q  c #8C3409",
"!  c #8D390E",
"~  c #863C0E",
"^  c #923205",
"/  c #92360A",
"(  c #943A0C",
")  c #9A3D0C",
"_  c #9C3B05",
"`  c #8C3C13",
"'  c #913D11",
"]  c #87410D",
"[  c #9B410E",
"{  c #93460D",
"}  c #8A441B",
"|  c #8B4C1B",
" . c #854717",
".. c #9C4412",
"X. c #924D13",
"o. c #9D4B15",
"O. c #94441A",
"+. c #954517",
"@. c #92541C",
"#. c #9A591C",
"$. c #9B5316",
"%. c #89541F",
"&. c #A7580F",
"*. c #A44C15",
"=. c #A44B14",
"-. c #AD5215",
";. c #AE5A14",
":. c #A3531B",
">. c #AC5419",
",. c #A55A1C",
"<. c #AC5A1C",
"1. c #A75013",
"2. c #B45C15",
"3. c #BB5C15",
"4. c #B25C1C",
"5. c #B85F19",
"6. c #B15512",
"7. c #AA4B0C",
"8. c #BC6216",
"9. c #B4611D",
"0. c #BB631C",
"q. c #BB6B1D",
"w. c #B66415",
"e. c #AA621B",
"r. c #8C4D24",
"t. c #854A26",
"y. c #924C24",
"u. c #9A4D20",
"i. c #8B532C",
"p. c #875325",
"a. c #92542C",
"s. c #975623",
"d. c #864F30",
"f. c #845A34",
"g. c #8A5932",
"h. c #8B5435",
"j. c #935A33",
"k. c #985A37",
"l. c #904E35",
"z. c #A45D21",
"x. c #AA5B23",
"c. c #AB5825",
"v. c #B45E20",
"b. c #9A673C",
"n. c #98612C",
"m. c #AA6423",
"M. c #A9652C",
"N. c #B56422",
"B. c #BB6522",
"V. c #B56A25",
"C. c #BB6C24",
"Z. c #B76B29",
"A. c #BD722C",
"S. c #BA7127",
"D. c #A46939",
"F. c #B56B33",
"G. c #AC743A",
"H. c #B77637",
"J. c #C45F0E",
"K. c #CB670D",
"L. c #C66A15",
"P. c #CB6C15",
"I. c #C46B1B",
"U. c #CA6E1A",
"Y. c #C26516",
"T. c #CD721D",
"R. c #CB701B",
"E. c #D1741E",
"W. c #D67519",
"Q. c #D26E12",
"!. c #C26D23",
"~. c #C57225",
"^. c #CC7523",
"/. c #CE7826",
"(. c #C5752B",
"). c #C97629",
"_. c #CD7A2B",
"`. c #C7792F",
"'. c #D07722",
"]. c #D37A24",
"[. c #D17D2C",
"{. c #D77C28",
"}. c #C27533",
"|. c #CB7C33",
" X c #C47A36",
".X c #D17F32",
"XX c #885E47",
"oX c #8A6756",
"OX c #947954",
"+X c #926B46",
"@X c #AA6D44",
"#X c #A47145",
"$X c #B67B44",
"%X c #A57B54",
"&X c #B07C53",
"*X c #917D69",
"=X c #A37E61",
"-X c #D8812C",
";X c #CC8135",
":X c #CB823B",
">X c #C4833E",
",X c #D28235",
"<X c #D2853A",
"1X c #D4893D",
"2X c #B88147",
"3X c #B88453",
"4X c #AB8253",
"5X c #8C8C7B",
"6X c #8D907E",
"7X c #BB9466",
"8X c #BA9C71",
"9X c #AF8C6C",
"0X c #B3A07F",
"qX c #C38244",
"wX c #CC8642",
"eX c #CD8A44",
"rX c #CA8C4B",
"tX c #C3894B",
"yX c #D38B42",
"uX c #D88E45",
"iX c #CE914D",
"pX c #D99449",
"aX c #C48D54",
"sX c #CB9454",
"dX c #C5945D",
"fX c #CB965D",
"gX c #CA9559",
"hX c #D09759",
"jX c #CB9C63",
"kX c #C49B6B",
"lX c #C79B66",
"zX c #C19F72",
"xX c #CBA16D",
"cX c #C6A16F",
"vX c #C9A576",
"bX c #D0AC79",
"nX c #989986",
"mX c #92918A",
"MX c #ADAC95",
"NX c #B1B9A5",
"BX c #CEB890",
"VX c #C0BBA1",
"CX c #BDC0AE",
"ZX c #E0E1B4",
/* pixels */
"                                                                                                                                ",
"                                                                                                                                ",
"                                                                                            N.                                  ",
"                                          x.                                              Z.*.                                  ",
"                                        H.:.                3XqX X|..XeXvXhX/.Z.m.Z.#.#.Z.>.                                    ",
"                                        }.                :X).)._._.[./.[.jX_._.).(.(.!.=.^                                     ",
"                                      wX>.            fX;X/.).[.`.B.>.=...b.) ) ....=./ ^                     >.                ",
"                                    wX).W             [.)._._.4.) E E R ' a.^ / ^ ^ Q /                       4.                ",
"                                  iX<X=.            <XyX/.~.=.U / ( / y.OXy.                                  v.                ",
"                                hXuX3.Y           kXvXkXjX>.E ( / /                                           v.                ",
"                              dXuXB./             bX|.U.aXk.^ /                                             pX>.                ",
"    wX X|.<X XS.              yX!./ Q         m.G.rX/.[.1.j.(  .                                O.          yX=.                ",
"          0.[.).            eX/.=.E       zXrXlX|.^..X`.^ j.S.).aXG.|.yX<X.X~.C.,.4X          $X            |.)                 ",
"            ).|.(.          `.)./ I     H._.'.qX$X~.yXB.W #X`.A.tXxXwX[._.[..X).).~.lXqX9.  tX=.          <X0.^                 ",
"            (.|.~.        H./.5.>.A.).|.[._.B.O.j.!.1Xc.W M.<.V.U.|.jX^.!.B.!.)._.].wXrX^._.~.#.      wX<X[.) =.                ",
"            ~.,X`.:.      aXlXzXhX].(.:X,XB.R a.y.B..X>.f ..V.(.[..XaX>.=.Q Q / *.9.eXiX^._._.-X,X<X<X<X.X*.*.>.                ",
"              ,X`.<.      8X|.|.jXF.:.yX~.) / ` +.S._.:.f <.(.-X!.:.j.R ^ E / ( R T b.F.^.[.).^.).)._._.!.x.=.                  ",
"              .X[.<.      `././.v.h.}.,X3.^ Y % @.S.`...! A.[.v.R i.y.Q ^ t.! Q y.b.a.T ` $.<.Z.C.B.B.N.*.( Q                   ",
"              |.[.<.    A.^./.0.` f.`.'.H.y.g   p.9.4.W h ! ) E ` +XQ / ( } / / y.y.U ! Q U U Q ! / / Q ^ Q                     ",
"            Z.[._.<.    _.^./.) W t.^.rXlXk.G . r @.O.x.<.:.( Y / Q Q Q ) ` Q / E ^ / Q Q Q Q Q / / / / W         Q             ",
"            !./._.*.  D.^.^.I.Q E / (.jXI.U ` $ + v C.,X[.[._.<.Y / / Q ! r.` ( ) ( Q ^ / Q ` t.f g             Q               ",
"            qXlXlX#X  G.T.^.5.Q Q E H.rXU.o.I u :Xi.z ).`.)._._.>.Q 9 * i l o * 7 Q / ! Q Q ' i.I g d       Q / (               ",
"            vX|.T.b.  m.E.T.2.E W W s.tXE.4.Y }.{.,.4 5./._.|.^.gXlX@.7 r.d . . . X 7 Y Q T ` r.^ Q E Q Q / ( (                 ",
"            rXR.].o.  M.'.R.I.E f E E g.y.I c.).`.lX3 } }.;XU.fXjX|._..X|.l W g t * . X 7 m g. .E / ! / / / /                   ",
"            ).^.'.2.  s.].U.R.8.i.p.] ` t.! _.!.7XuXc p F.kXjXgX~.'.!.@XqXZ 9XT ( <.l X . 5 c 6 d h W ~ W h                     ",
"            ^.^.T.I.; , ].L.P.rX2XW g I f x.{.H.aX].r.1 *.F.BX|.^.`._.H.Z.g uXD.T / P.S.P 5 .                 ).!.>...( ( !     ",
"            q.^.R.E.~ . V.].I.aXR.U.9.>.E I.T.Z.2X{.Z.1 B x.:XxX~.)./.[.x.l E.wX%XU [ 7X-X;X< .       P 5X8./.-.Q Y             ",
"            V.P.U.T.8.% + I.].sXR././._ @XbXeXv.B._.[.b 3 >.5.wXlX^.`.`.#.d _.q.$Xi.} } E 6.Q.e.X. .M.uXhXH./ U Q               ",
"            X.L.R.L./.b.5 + { 2XA.-.W 7 MXhXBX9XH.).{.V 2 r.>.^.jXyX!.}.X.w -.9.<.9XOX~ Q Y / 2.P.Q.Y.7.( i.^ !                 ",
"              8.U.^.jX;Xs.- . o > * X D yXK.wX@X0./.].m.1 c 2.B..XxXv.|.z | I.:.S.,XvXwX6.k E I W ! E Y Q a.W                   ",
"              w.K.rX`.T.].Y.X.t q t  .3X'.).^.#X!.).).'.y $ #.>.^.qXr._.j #.].C.].P.iX7X_ W Q ! Q Q Q E ' f.                    ",
"              X.L.tXR.T.[.,X{.{.{.].cXH.E.'.5.O./.P.U.-XZ @ B 1.:.I.,./.a q.q.o.>.4.M.g.^ g d Q Q Q ! Q Z                       ",
"                w.iXU.R.U._._.~.U.vXi.8././.[ 1.;XgX:X0.3X$ > 9.5.'.{.~.w ( W h I U i.g./ i . O * & - D J                       ",
"                  2X:XQ.^.T.^.I.cXk.I ^.T.I.U F.jX;XsX#Xa.r @ %.U.!.T.9.w / W f ~ i.+X} Q c S .         D P                     ",
"                    OX;.I.8.1.kXk.0 q ~.E.-.d %X1XsXrXG.n 2.: , ].U.'.1.w W e % r.b._ ..k . N D             MX                  ",
"                        8 a 9XZ 8 X X q.L.E > 8XiX).1XOXl W.$.O #.I.U.k 7 . . . 7 jX9.+.j .   N J               NX              ",
"                          mXS   o . * Q ( = # 8XK.P.K.V p q.&.N oXY.8.u & . . . e ,X&X[ +.s     D 5X              VX            ",
"                        5XF     X . ] 7.a . # H.K.E.6.m # ] T.X.V ! k a O . . . X.Q.3XM.( ^ y     K nX                          ",
"                      nX          | ].=.; . o e.P.R.[ g o * O.*XU.{ ~ a . . . X 8.Y.d.(.s l.C         0X                jX      ",
"                    MX        i m.].Y.Y X . . ;.Q.L.8.s . . ; mXsXW.3.7 . X . j W.$.G.>.K               _.                      ",
"                  NX    A ,.x.9.].T.3.6     l P.P.U.T.U.q . . b 9XY.e 6       &.R.H.    5X          [.                        / ",
"                NX      G.4.( c...M.u.X     $.P.L.P.U./.I.O   . H oX4 O       2.<X<X      nX                                    ",
"              CX        H D.V z.. F 4 .     q &.W.U.T.^.].:.    & A A         :XuXv.I e =                                       ",
"            CX              K ; . .           i q.U.^.<XA.C.j     % %         uXB.Q ;.( E 7 NX                                  ",
"                                                G `.|.|.<X`.S.                !./ g ] 9 x XX  $X                                ",
"    ZX                                        nX  | I.<.0.[._.N.                / : l v 9XrXxX                                  ",
"                                              nX    m /.B.(.|.~.z               z : C g._.      ^.                              ",
"                                                        ).~.|.!.C.                                1X                            ",
"                                                          ).,X`.9.C.                                :.                          ",
"                                                            ,X|.9.S.@.                                                          ",
"                                                            .X[.N.m.V.n.                                                        ",
"                                                              [.9.z.s.A.^._.                                                    ",
"                                                              _.<.m.M.).^./.)                                                   ",
"                                                              ].1.@.F./.^.q.Q Q                                                 ",
"                                                              jXD.m M.E.^.8.Q Q                                                 ",
"                                                              ^.b.M @.E.T.3.Y                                                   ",
"                                                              ].$.r %.E.R.I.E f                                                 ",
"                                                              ^.2.6 M ].U.R.3.i.                                                ",
"                                                            ^.R.U.u : {.U.L.                                                    ",
"                                                                T.}     ].U.                                                    ",
"                                                                                                                                ",
"                                                                                                                                ",
"                                                                                                                                ",
"                                                                                                                                "
};
