/* XPM */
static char *_3594_0876543da8d0e96e136cd6ea260ec70088e241c2ddd61e05e00b6ea0967538e7[] = {
/* columns rows colors chars-per-pixel */
"64 64 59 1 ",
"  c #980088",
". c #646464",
"X c gray33",
"o c #484848",
"O c gray22",
"+ c #202020",
"@ c #2C2C2C",
"# c #A86840",
"$ c #FC9C60",
"% c #885830",
"& c #483818",
"* c #744C28",
"= c #D08050",
"- c #DC8854",
"; c #FCB080",
": c #FCA470",
"> c #F0945C",
", c #A0643C",
"< c #C87C4C",
"1 c #E88C58",
"2 c #BC7848",
"3 c gray44",
"4 c black",
"5 c #9C6038",
"6 c #80502C",
"7 c #B47044",
"8 c #FCB890",
"9 c #6C4824",
"0 c #5C4020",
"q c #543C1C",
"w c #905C34",
"e c #989898",
"r c #403018",
"t c #B00000",
"y c #A40000",
"u c #7C0000",
"i c #BC0000",
"p c #700000",
"a c #880000",
"s c #580000",
"d c #008484",
"f c #007070",
"g c #005858",
"h c #382C14",
"j c #28200C",
"k c #E46C00",
"l c #848400",
"z c #585400",
"x c #404000",
"c c #4C0000",
"v c #302410",
"b c #00001C",
"n c #000040",
"m c #00002C",
"M c #000034",
"N c gray36",
"B c gray25",
"V c #4C4C4C",
"C c white",
/* pixels */
"                                                                ",
"                                                                ",
"                                                                ",
"                                                                ",
"                                                                ",
"                                                                ",
"                                                                ",
"                                                                ",
"                           .XXooOOO                             ",
"                          oXXoooOOO+                            ",
"                         XOOO@@@OOoO+                           ",
"                         o#$%&++@@O*+                           ",
"                         o=$$$$$-%+#+                           ",
"                         o=;:$$$$;>,+                           ",
"                         O<%,1:>;,%,+                           ",
"                         %234@56@+35%                           ",
"                         7$;8;:-;8;=7                           ",
"                         %$$$$;-$$$=%                           ",
"                          =2>2662>2%                            ",
"                          =7>2++2>76                            ",
"                          =<>#%%#><6                            ",
"                         45<::;:$$<94                           ",
"                        ,46<--27--#&40                          ",
"                   ,,+++,445669999944000***9                    ",
"                 ,%##@@@,444q1#wqq444000*%%%9q                  ",
"                ,##%,&@@*,4e444444340000*%%*00q                 ",
"               ,#75%,9+++,94e4444340000*%%*0090q                ",
"              ,#7#w%,,&++r,*44*r4400*%%%%%*05990q               ",
"             ,,7#w%%,,9+++r5,,,q9%%77775%*0**5600q              ",
"             ,#75%#%0,,0+++r,5,q5557****&*0w*%tyu0q             ",
"            ,,iyyp99q9550+++r*5q5559q&&&&*0w5iaaasq             ",
"            ,iyyyyp90r9%%0+++r*q666,*w0*r*0wiodfo@sq            ",
"           ,ioooOOus&r99990++++q***,*w0*r44iXd4+gO@s            ",
"           idfOOOOdf&9090000++++hr&0&&rrh+4Xof+OgOo@            ",
"           d4+gOOd4+g69000000h++++hr0qqhj+oXoogg@Ooo@           ",
"          of++g@Of++g 6&&hhhhhhjj++++jhjj4dfoo44Oodf@           ",
"          oOgg+44Ogg+ @@+++++4klzx4444444d4+g444+d4+g           ",
"          oOO@4444O@@ @@+++++4zzxx4444444f+OgO++of+Og           ",
"          oOdfO44OdfO @@+++++4444444444444gg@Odfoogg+           ",
"          od4+gOOd4+g0&hhhhhhhhhjrrqqqq&&& OOd4+gOo@            ",
"           f++g@Of++g00q&rrrr&&&hrq0*****00uof+OgO@c            ",
"           ugg+@OOgg 00q&rrrrr&&hq&*qqqrrr0tuOgg+@cc            ",
"           tc@@OOOcc 090&&rrrrr&hh0q000000r  %0qqr              ",
"             =999q   090q&rrrrhhjrr099999900 #000r              ",
"             500qq   &&&rhhhhhvjjrq09**99990  +++               ",
"              +++    09*90q&rhhvh&q096**9990                    ",
"                     09*90q&rhhvh&q09*6*9990                    ",
"                     09*90q&rhhvh&q009666*990                   ",
"                     09*90q&rhhvh&qq66666****                   ",
"                     09*90q&rhhvvv&hh**999999*                  ",
"                     09*90q&rrhvvjh&9*9q000q09                  ",
"                     *66*00q&&rhvjh&qq&&&&&r&0                  ",
"                    *6*90rrr&&&rr4hhhrrrrrrhh                   ",
"                    **q&rrrrrrrrh44hhhhhhhhhh                   ",
"                     vj&&rrrrrhvj4444jvvvvj4                    ",
"                     4444444444444444444444                     ",
"                      bnmbb444444444444444                      ",
"                      bnMmb44444 444444444                      ",
"                      4444444444 444444444                      ",
"                       4bb44444   44444444                      ",
"                      bnmmbb4444  4444444                       ",
"                    ..bnnnb44444ooooooooooooooooooXXXN.         ",
"                  ..NX4444444444@@@@@@@@@@@@@@@@OOOoXXN.        ",
"                    .NXXooooBBBBOOOOOOOOOOOOBBoVXXNNN..         "
};
