/* XPM */
static char *_6dd18d2e03d481bcc291500be51ce8dG1QTLyyVYexPANwq[] = {
/* columns rows colors chars-per-pixel */
"64 64 254 2 ",
"   c None",
".  c #0C0D0C",
"X  c #160D07",
"o  c #1C140B",
"O  c #18130C",
"+  c #131413",
"@  c #1B1511",
"#  c #1C1915",
"$  c #1D1C1A",
"%  c #171A17",
"&  c #0F1010",
"*  c #21150A",
"=  c #241A0C",
"-  c #2B1C0C",
";  c #271707",
":  c #321E0B",
">  c #381D08",
",  c #231C12",
"<  c #291E12",
"1  c #251B18",
"2  c #341917",
"3  c #2C220D",
"4  c #33220B",
"5  c #3B240D",
"6  c #382B0E",
"7  c #2C2114",
"8  c #23211D",
"9  c #2B241A",
"0  c #2B281A",
"q  c #322413",
"w  c #392612",
"e  c #3C2A14",
"r  c #342A1C",
"t  c #3A2C1C",
"y  c #332717",
"u  c #3E311A",
"i  c #1A2B25",
"p  c #292825",
"a  c #342C22",
"s  c #362D28",
"d  c #3A3124",
"f  c #3C352A",
"g  c #39342A",
"h  c #2F3435",
"j  c #373836",
"k  c #2F302D",
"l  c #431D1A",
"z  c #41260E",
"x  c #442B0D",
"c  c #4A2D0C",
"v  c #432C13",
"b  c #472D13",
"n  c #4B3314",
"m  c #43321C",
"M  c #4C351A",
"N  c #4C3A1D",
"B  c #463616",
"V  c #533B1C",
"C  c #583916",
"Z  c #4F320F",
"A  c #643C1A",
"S  c #613D0F",
"D  c #4C3A24",
"F  c #433A2C",
"G  c #4C3D2B",
"H  c #433727",
"J  c #543E23",
"K  c #583D22",
"L  c #433D32",
"P  c #483B38",
"I  c #5A393B",
"U  c #502A2A",
"Y  c #713934",
"T  c #3F403D",
"R  c #5A431C",
"E  c #664319",
"W  c #744B1A",
"Q  c #7A551A",
"!  c #5C4424",
"~  c #5C462B",
"^  c #564628",
"/  c #4B4235",
"(  c #4A453B",
")  c #544634",
"_  c #534B3D",
"`  c #594A36",
"'  c #58532C",
"]  c #644827",
"[  c #734D24",
"{  c #695528",
"}  c #745429",
"|  c #664D35",
" . c #6D5434",
".. c #675539",
"X. c #735C3B",
"o. c #735934",
"O. c #79672B",
"+. c #736531",
"@. c #3B3E40",
"#. c #3A4346",
"$. c #484645",
"%. c #554C46",
"&. c #595446",
"*. c #485355",
"=. c #595756",
"-. c #4F4E52",
";. c #635C4B",
":. c #685A43",
">. c #635A53",
",. c #714C50",
"<. c #7B694E",
"1. c #6B6555",
"2. c #756855",
"3. c #746D57",
"4. c #495B64",
"5. c #57676D",
"6. c #756D6A",
"7. c #777564",
"8. c #797574",
"9. c #69686A",
"0. c #873E3F",
"q. c #8E5D1E",
"w. c #A9711A",
"e. c #825B27",
"r. c #885932",
"t. c #894E2D",
"y. c #8A6328",
"u. c #966826",
"i. c #84702C",
"p. c #886536",
"a. c #946B38",
"s. c #96752F",
"d. c #A87529",
"f. c #B87B29",
"g. c #AA7936",
"h. c #B77C38",
"j. c #A26B23",
"k. c #A45D29",
"l. c #905657",
"z. c #896C46",
"x. c #926F42",
"c. c #9A7849",
"v. c #8C7658",
"b. c #977C58",
"n. c #846D50",
"m. c #A67E45",
"M. c #AF784F",
"N. c #847A68",
"B. c #867975",
"V. c #936E70",
"C. c #A5686F",
"Z. c #9C5A66",
"A. c #C37F4D",
"S. c #AB8838",
"D. c #B98438",
"F. c #B28E33",
"G. c #C58938",
"H. c #C79638",
"J. c #D2902F",
"K. c #E29831",
"L. c #DDA83D",
"P. c #E7A537",
"I. c #AC854A",
"U. c #B88846",
"Y. c #BD9245",
"T. c #AA8857",
"R. c #B48B54",
"E. c #BB9259",
"W. c #A99054",
"Q. c #B9A843",
"!. c #8A836B",
"~. c #94866B",
"^. c #898478",
"/. c #958C78",
"(. c #95917A",
"). c #A99167",
"_. c #B19570",
"`. c #AD936B",
"'. c #C99348",
"]. c #D59A47",
"[. c #C69759",
"{. c #D08D56",
"}. c #E09B45",
"|. c #D7A645",
" X c #D8AA57",
".X c #DAB45B",
"XX c #CCAC4F",
"oX c #E6B446",
"OX c #E6B657",
"+X c #EFB04F",
"@X c #CB9670",
"#X c #D8A967",
"$X c #D4B06C",
"%X c #E6B666",
"&X c #E9BB79",
"*X c #E3AE65",
"=X c #F4C758",
"-X c #FDD558",
";X c #EECB52",
":X c #DFC16C",
">X c #E8C777",
",X c #F2CD70",
"<X c #FAEA66",
"1X c #F9F06E",
"2X c #E9D458",
"3X c #B2758B",
"4X c #878484",
"5X c #9B9786",
"6X c #9B9895",
"7X c #928E88",
"8X c #A59A84",
"9X c #A69D95",
"0X c #B88593",
"qX c #B6A687",
"wX c #A9A497",
"eX c #B8AC94",
"rX c #BAB599",
"tX c #ABA991",
"yX c #A8A4A4",
"uX c #B5ACA6",
"iX c #B9B5A7",
"pX c #BCB5B8",
"aX c #ACB6A5",
"sX c #9EA3A4",
"dX c #C1898E",
"fX c #C4AD89",
"gX c #C9B89A",
"hX c #D9B786",
"jX c #EBAE96",
"kX c #C2B8A5",
"lX c #C4BAB4",
"zX c #BEC4AF",
"xX c #F1C585",
"cX c #EFCF90",
"vX c #F7E192",
"bX c #D7C8A8",
"nX c #C8C9B7",
"mX c #D5C9B5",
"MX c #CECCB4",
"NX c #E5D5B9",
"BX c #ECCFAB",
"VX c #FCEDB6",
"CX c #D0CCC9",
"ZX c #E4DED8",
"AX c #EFD9C9",
"SX c #F4E8C6",
"DX c #E7E5DC",
"FX c #F5E7D6",
"GX c #ECEDD3",
"HX c #ECEBE7",
"JX c #F8F6E9",
"KX c #FEFEFC",
"LX c #F9F7F3",
"PX c #EEF1E5",
/* pixels */
"                                                    bXJXNXM.R.hXJXKXZXb.b.8X).                                                  ",
"                                                  R.cXFXbXg.M.BXKXLXqXb.eXkX8X                                                  ",
"                                                  '.NXVXhXh.m.AXKXFXfXbXmXmX                                                    ",
"                                                [.[.BXBXhXd.h.cXJXSXSXmXkX                                                      ",
"                                                &X XjXcX#Xg.g.hXSXcX$XT.r.W       v.                                            ",
"                                                  >X+XhX[.h.g. XxXxX{.j.Q W E A ]  .X.                                          ",
"                                                  VX%X*X:XOX#X[. X&X*XM.k.k.a.[ A Z V V                                         ",
"                                                  SXvX1X<X=XXX[.{.].*X{.x.a.t.t.t.Y A J G m                                     ",
"                                              VXSXvX1X-X-X=XoX'.R.R.U.E.c.p.} ] E K K K ^ u                                     ",
"                                          +XvXVXvXxX%X+X+X+X|.'.'.g.a.a.s.y.} R R J b m e y y                                   ",
"                                        }.+XxXcXjX%X*X+XoX].].'.D.a.y.r.Q E R R c 5 4 - 3 ; 3                                   ",
"                                      h.J.}.&X&X#X X].].].].H.D.d.j.e.Q E R Z 6 5 4 4 - ; = 3 3                                 ",
"                                      h.{.#X$X[.R.'.'.D.F.J.K.K.K.f.i.q.q.Q Q R R Z Z Z x 6 3 3 y                               ",
"                                    I.h.A.[.@XU.h.D.G.G.P.oX-X-X-X-X;XL.F.S.Q R B c 6 6 3 3 = 3 7 r                             ",
"                                  M.M.A.A.E.E.g.h.f.J.P.2X1X1X1X<XXXQ.O.R B 6 3 3 3 ; = 3 o 3 = # 3 0                           ",
"                                  M.{.{.R.E.g.f.f.J.+X-X1X1X2XQ.O.{ N F B u 0 6 3 3 3 o o o o o o o 9                           ",
"                                )._.E.T.m.g.f.G.K.;X<X2XQ.S.' ' .._ ) ) G t : q 7 - = * * * o o 3 , 0                           ",
"                                ).@XT.c.a.d.G.K.;X2XQ.i.' ' 1.7.7.1.;.) v w t r t q 3 * * o * , , 0 g   o.X.                    ",
"                                W.b.a.u.w.f.J.|.S.O.{ ..1.7.(.5X7X^.7...D m m m t y 0 < = o @ , 0 g   { } X.o.}                 ",
"                                z.O.u.j.d.F.S.i.{ ' 1.3.7.(.sXaXaXtX^.2.D m D H G H u 7 = o * * 7 9 0 ` :.X.] ]                 ",
"                                  O.q.S.d.s.{ ' ' ) ) ) ..5XaXzXzXzX(.X.B D G G ` G d < * 1 d %.>.;./ :.n. .K D                 ",
"                                  O.q.i.+.' R ^ H ^ ^ ~ ..~.rXnXzXCXMX3.V D J ) _ P F F :.B.8X9XwX7XV.2.<.| K K } o.            ",
"                                  O.{ { ^ N f u / ` .. .{ o.).MXDXLXKXeX..~ ) ) ( _ B.eXlXlXuX9X(.8X5X1.` ] D K [               ",
"                                { [ ' R 6 6 6 u ~ | o.z.p.e.a.CXKXKXKXPXiXv.| ) %.9XHXHXCXiXqX5X5X9X7.X. .| M M                 ",
"                                ! R B 6 4 4 w D | X.z.c.x.p.a.ZXKXKXLXFXAXFXlXuXnXLXLXCXiXwX5X(.8X7. .:. .~ M                   ",
"                                R V B 6 3 4 e R  .z.b.b.a.y._.JXLXLXFXjXdXFXHXFXHXDXCXwX5X7X^.B.1.G |  .| ]                     ",
"                                ! N B 6 u B M !  .p.x.a.p.m.NXBXBXjX@XM.@XNXbXlXkXuX!.%.P L L f s m ~  .| ]                     ",
"                                  ^ R R ^ J C E [ p.p.p.c.gXLXBX{.M.M._.gXgXgXfX8X/.1.F d d s r t b ] | |                       ",
"                                        | R R +.v._.MXkXbXJXPXGXbXqXfXgXgXfXeX8X^.7.1.&.&.%.%.f B m ] ] R N                     ",
"                                        ' :.~.(.nXJXKXKXKXJXGXNXbXgXgXqX8X_.8XB.3.&.&._ ( %.( 7 - q b b Z Z E Q.XX              ",
"                                        2./.8XzXDXLXKXLXLXGXMXbXeX).~.~.~./.N.1.&.( F g g T a - ; - > z x Q XX1X2XF.            ",
"                                        N.5XtXzXGXPXMXeXrXMXzX8X(.(.N.N.N.2.;._ / f a = 8 0 7 , - > c A S.;X<XoXH.y.m           ",
"                                        7.(.5XaXzXqXv.+.!._.(.!.!.3.1.;._ _ ( L f g 9 = , 9 0 q x E s..X;XXXg.e.W R N           ",
"                                        3.  !.(.!.X.} <.~.!.7.3.;.;.&._ ( / g g a a , , 7 q M } g..X2X|.d.c.o.b e e             ",
"                                                ..^ :.!.N.3.&._ _ ( / / F g d g a a 7 4 E p.'.OX=X|.d.[ }  .M > z z 5           ",
"                                                  N ' ;.;.) t r / F L L f g g g H R Q I.$X,XoXG.a.[ n w v z > w z 5 5           ",
"                                                N e 5 u F H a a f f / f F H ^ { u.f.L.=X.XM.c.l.Y q 5 5 5 5 4 5 5 w 5 :         ",
"                                                q 4 4 y f g a r p 0 a H ' } W.:X+XP.J.j.t.Z.l.I P w z v 5 5 5 5 4 : : <         ",
"                                              H 7 - - y H f f d d N ! y.T.cXvX>XY.} K Y C.C.I 8 H H z b b x 5 5 : - <           ",
"                                              d 7 - - r f F ) ~ } a.U. X>X.XI.p.~ s I Z.3X3X,.2 9 a 5 5 z 5 5 : - < 7           ",
"                                              t 7 = = r D { i.S.XX%X.XD.p.{ ` =.-.%.l.3X3XV.j # @ 9 q : : : - - , 1             ",
"                                          F a 7 3 3 x E d.D.J.oX.XU.y.' L j j 4.=.Y l.0X3XU 2 p , 1 = ; < = = , <               ",
"                                        f u y 3 6 R I.$XoXF.w.w.Q V F ( j #.4.5.s Y l.dX3XP 9 a 0 1 * o , , ,                   ",
"                                      F t q 7 v X.[.>X.Xu.W S B e < 0 #.4.5.5.h * l 0.dX0XI 9 8 1 * = 9                         ",
"                                      d y 7 < D W.I.y.R v > l b z G *.4.*.g 9 - X 1 U C.dX,.1 $ # o 7                           ",
"                                    d e 7 < 7 e R B 4 3 : > c C C C m < = ; > : * X 2 Y C.Z.U @ X X = 7                         ",
"                                    N v 3 , , 7 7 7 ; - v Z C A A Z > ; ; > : > * X o U l.V.l.p X * z e                         ",
"                                F.s.! b y 9 7     e w 4 5 v Z A A Z > : : 5 : ; ; * X * U ,.l.,.U w v q                         ",
"                            :XXXd.Q   m           m E C v 5 z A t.[ b : ; * o o * o X X @ l U Y ,.&.P                           ",
"                      >X:XXXS.u.                  y v ! A C b A W A 5 ; * , r g P 2 X @ 1 2 s P %.V.6.                          ",
"              .X:X,X,XXXd.Q                         / G %.n.B.l.C z m P >.6.3X4X6.P $ p p h -.9.9.4X4X                          ",
"          H.oXL.H.F.u.W                           wXB.6.uXpXpX6X%.>.4XiXpXyX7X8.=.p $ k j h $.@.j 9.5.                          ",
"          w.w.Q R n                             B.ZX6XaXLXLXZXpXB.7X9XuX6X6.=.T j 8 $ $ 8 1 # 1 + p j                           ",
"          A c 5                               a ^.LXsXpXKXLXCXyX6.9.>.>.-.@.k p 1 $ . . X X X X X & p                           ",
"                                              p 8.LXsXsXHXCX4X8.-.j g p p 8 $ $ $ X X X * * * o X + 8                           ",
"                                              p =.CX6X3XsX8.4.$.g 1 $ 1 1       1 X X 1 1 * * , a 8 8                           ",
"                                              i T sX6X%.-.$.s p 1 1 #             @ o o X , s j k $                             ",
"                                                k 5.4X$.s p 1 # @ $                 + . + p h p $ %                             ",
"                                                i k $.@.p 8 # @ $                     % + + + + & +                             ",
"                                                  % 1 p $ % %                             + & . . +                             ",
"                                                    @ % % + +                               & . . &                             ",
"                                                    + + & +                                   + . &                             ",
"                                                                                              + & & +                           ",
"                                                                                                  + %                           "
};
