/* XPM */
static char *_9673adbac26496aad073c0054fa9978NUh0FED9fmOzWkda[] = {
/* columns rows colors chars-per-pixel */
"60 60 7 1 ",
"  c None",
". c #00D200",
"X c #00D300",
"o c #00D400",
"O c #00D500",
"+ c #00D600",
"@ c #00D700",
/* pixels */
"                                                            ",
"                                                            ",
"                              o                             ",
"                             oo                             ",
"                        ooo@ooo@@@oo                        ",
"                    ooo@@@oooooooo@@@@o                     ",
"                  o@@@oo      o     o@@@o                   ",
"                oo@oo         o        o@@o    o            ",
"          ooo  oooo           o          o@@o  oo           ",
"         oooo ooo             o            @@ ooo@          ",
"        oooooo                o               ooooo         ",
"       ooXoooo                X              ooooo@o        ",
"        oooooo@              XX              @ooooo         ",
"          ooooo              XX             ooooo           ",
"            oooo              X             @oo   o         ",
"        @o    @@              X            o@o   oo         ",
"       ooo      o             o            o      oo        ",
"       oo                     o                   o@o       ",
"      o@o                    XX                    oo       ",
"      @o                     XX                    o@o      ",
"     o@o                     XX                     o@      ",
"     o@                       X                     o@      ",
"     @o                       X                      @o     ",
"     @o                      XX                      @o     ",
"    o@                      @ooo                     o@     ",
"    o@                    oo    o@                   o@     ",
"    @o                   oo      oo                   @o    ",
"    @o                   o        o                   @o    ",
"    oo       X          oo        oo          X       oo    ",
"  ooooXoXXXXXXXXXXXXXXXXo          oXXXXXXXXXXXXXXXoXXoooo  ",
"    oo       X      o   oo        oo          X       oo    ",
"    oo                   @        o                   @o    ",
"    @o                   oo      oo                   @o    ",
"    @o                    oo    oo                    oo    ",
"    @@                      ooXo                     o@     ",
"    o@                       XX                      o@     ",
"     oo                       X                      @o     ",
"     oo                       X                      @o     ",
"     o@                      oo                     o@      ",
"      @o                     oX                     @o      ",
"      oo                     XX                    o@       ",
"       @o                     X                    @o       ",
"       @@                     X                   o@        ",
"        @o     @o             X            o@    o@o        ",
"        oo   oo@              X             @oo  o@         ",
"           ooooo             XX             ooo@@           ",
"         ooooo@              XX              oooooo         ",
"        ooXoooo               X              ooooooo        ",
"        oooooo                X               oooooo        ",
"         ooooo o              o            @o ooooo         ",
"          ooo  o@o            o           o@o  @oo          ",
"           @o   o@oo          o         oo@@   oo           ",
"                 oo@oo        o       o@oo                  ",
"                   o@@@ooo   Xo   ooo@@o                    ",
"                      o@@@o@oooo@@@@oo                      ",
"                          oo@ooooo                          ",
"                             oo                             ",
"                              o                             ",
"                                                            ",
"                                                            "
};
